<svg width="512" height="512" viewBox="0 0 512 512" fill="none" xmlns="http://www.w3.org/2000/svg">
<g filter="url(#filter0_d)">
<path d="M256 490.057C385.266 490.057 490.057 385.266 490.057 256C490.057 126.734 385.266 21.9429 256 21.9429C126.734 21.9429 21.9429 126.734 21.9429 256C21.9429 385.266 126.734 490.057 256 490.057Z" fill="#DE59FF"/>
</g>
<path opacity="0.1" d="M333.787 95.989C317.842 88.3827 296.777 82.6041 269.421 81.1774C191.122 77.0452 149.467 112.118 131.73 147.152C113.993 182.188 123.501 243.628 142.043 265.425C160.585 287.184 156.489 322.768 156.489 322.768L315.985 482.265C416.182 455.769 490.057 364.526 490.057 256C490.057 252.058 489.953 248.14 489.76 244.245L367.396 121.882C360.557 113.032 349.732 103.596 333.787 95.989Z" fill="black"/>
<path d="M261.219 413.364L215.947 381.674C215.947 381.674 214.137 325.537 230.434 312.861C246.732 300.185 247.638 256.724 244.921 240.426C244.921 240.426 236.455 216.41 210.894 220.945C185.332 225.48 187.806 254.339 188.218 269.594C188.631 284.848 169.666 314.119 156.473 322.777C156.473 322.777 160.596 287.199 142.043 265.409C123.491 243.62 114.009 182.191 131.737 147.147C149.464 112.104 191.104 77.0605 269.437 81.1832C347.769 85.306 374.567 124.885 377.041 141.788C379.515 158.691 362.199 174.77 362.199 174.77C362.199 174.77 340.761 160.34 322.208 161.165C322.208 161.165 324.682 195.796 280.156 214.761L276.446 262.997L330.866 320.716C330.866 320.716 351.48 301.339 362.199 301.339C372.918 301.339 384.05 311.646 384.05 319.479C384.05 327.312 385.699 334.321 376.216 343.803C376.216 343.803 373.331 333.084 370.445 335.97C367.559 338.856 362.611 345.865 367.559 359.47C372.506 373.075 376.216 398.636 363.436 421.724C350.655 444.811 304.893 418.838 290.051 413.89C275.209 408.943 261.219 413.364 261.219 413.364V413.364Z" fill="#19282F"/>
<path d="M389.547 282.16C389.275 280.376 388.767 278.74 388.183 277.15C387.65 275.527 386.951 274.008 386.323 272.443C383.647 266.286 380.467 260.424 377.257 254.589C374.366 249.433 371.338 244.373 368.238 239.336C370.89 238.568 373.426 237.541 375.847 235.902C377.345 234.839 378.873 233.423 379.621 231.346C379.841 230.844 379.926 230.302 379.973 229.748C380.071 229.17 380.004 228.71 379.953 228.239C379.881 227.252 379.702 226.414 379.529 225.579C378.848 222.21 377.987 218.979 377.131 215.725C376.27 212.478 375.348 209.252 374.405 206.036C372.537 199.597 370.54 193.201 368.504 186.818C366.387 180.46 364.354 174.077 362.081 167.77C363.631 174.293 365.352 180.762 366.938 187.268L371.899 206.717C373.464 213.197 375.248 219.702 376.429 226.151C376.723 227.802 376.994 229.261 376.591 230.272C376.202 231.369 375.201 232.399 373.984 233.235C371.529 234.901 368.346 235.989 365.332 236.668L362.987 237.197L364.252 239.193C367.784 244.762 371.202 250.442 374.523 256.15C377.866 261.847 381.073 267.629 383.964 273.519C385.333 276.465 386.726 279.513 387.397 282.497C387.737 283.882 387.61 285.606 387.478 287.145C387.321 288.72 386.899 290.236 386.26 291.66C385.009 294.542 382.603 296.856 379.937 298.732C377.257 300.618 374.313 302.171 371.341 303.646C374.455 302.498 377.543 301.218 380.418 299.468C383.278 297.756 386.052 295.518 387.717 292.381C388.544 290.835 389.094 289.131 389.366 287.417C389.598 285.674 389.848 284.052 389.547 282.16V282.16Z" fill="#19282F"/>
<path opacity="0.25" d="M196.935 118.318C179.59 125.568 163.349 136.163 151.507 150.765C139.666 165.367 132.523 184.22 134.031 202.959C139.54 189.149 148.324 176.657 159.457 166.802C146.032 193.349 145.184 225.929 157.209 253.139C153.771 231.581 161.661 208.535 177.591 193.608C177.011 215.23 176.432 236.853 175.852 258.475C172.454 243.759 171.998 227.931 177.56 213.889C183.122 199.847 195.465 187.964 210.397 185.697C225.33 183.43 241.949 192.677 245.533 207.349C250.804 196.544 256.076 185.739 261.348 174.935C261.88 183.467 262.412 192 262.945 200.532C269.34 180.559 283.191 163.069 301.168 152.268C319.317 141.363 339.616 138.584 360.359 140.809C336.001 129.122 314.495 114.797 287.196 109.573C257.106 103.814 225.274 106.472 196.935 118.318V118.318Z" fill="#467082"/>
<path opacity="0.25" d="M175.599 153.295C209.07 129.718 251.976 119.961 292.351 126.747C273.191 132.141 257.705 148.89 253.825 168.413C249.59 164.175 248.471 157.147 251.181 151.803C243.373 159.572 234.579 166.349 225.076 171.918C219.222 167.233 210.933 166.578 203.661 168.402C196.388 170.226 189.877 174.218 183.496 178.154C182.225 178.938 180.954 179.721 179.684 180.505C178.781 181.062 177.877 181.619 176.974 182.177C172.461 184.96 167.948 187.743 163.435 190.527C166.13 184.883 168.837 179.215 172.336 174.03C182.542 158.906 199.576 148.588 217.707 146.547C199.117 143.457 179.157 150.493 166.614 164.557C169.059 156.431 175.062 149.445 182.728 145.804" fill="#19282F"/>
<path opacity="0.25" d="M357.413 346.415C358.769 361.509 360.124 376.603 361.48 391.696C361.871 396.057 362.249 400.554 360.918 404.725C359.586 408.895 356.092 412.696 351.724 412.985C346.178 413.352 341.984 408.39 337.992 404.524C321.976 389.011 294.457 387.327 276.67 400.772C282.451 389.415 295.584 382.267 308.259 383.576C294.711 375.935 276.673 377.154 264.276 386.55C268.116 379.941 271.956 373.332 275.795 366.723C270.031 372.138 264.267 377.552 258.502 382.967C260.518 374.256 262.534 365.544 264.55 356.833C254.865 360.278 247.085 368.66 244.37 378.574C238.862 363.694 240.687 346.292 249.162 332.877C241.483 341.069 237.167 352.323 237.398 363.549C231.369 356.326 231.588 345.599 234.651 336.703C237.713 327.806 243.173 319.943 246.968 311.333C254.121 295.105 255.106 276.875 254.855 259.141C259.511 270.77 264.167 282.399 268.824 294.028C268.96 287.894 269.097 281.76 269.233 275.626C279.722 295.277 287.786 316.222 293.184 337.834C294.918 329.186 296.652 320.538 298.387 311.891C302.395 318.776 306.403 325.661 310.411 332.547C311.693 330.457 312.976 328.367 314.258 326.278C318.944 334.029 323.63 341.78 328.316 349.532C331.159 327.27 353.311 309.294 375.682 311.097C377.985 312.197 377.747 315.817 375.955 317.636C374.164 319.454 371.528 320.069 369.153 321.004C355.981 326.189 350.35 344.726 358.413 356.362" fill="#467082"/>
<path d="M259.852 347.342C266.725 342.296 272.208 335.376 275.549 327.531C275.419 335.092 275.288 342.652 275.158 350.213C275.136 351.472 275.164 352.868 276.021 353.791C277.149 355.004 279.091 354.794 280.719 354.488C288.758 352.978 296.797 351.468 304.836 349.959C303.405 355.355 301.975 360.751 300.544 366.146C310.339 359.79 324.301 360.773 333.108 368.439C339.503 374.004 342.904 382.162 346.093 390.017C342.396 375.892 341.094 361.145 342.258 346.591C342.75 350.343 340.553 354.292 337.105 355.851C333.587 357.442 329.347 356.557 326.061 354.533C322.774 352.509 320.246 349.486 317.779 346.517C316.593 349.882 315.407 353.247 314.221 356.612C313.283 351.08 312.345 345.548 311.408 340.015C306.108 341.978 300.808 343.941 295.508 345.904C291.518 347.381 286.669 348.744 283.331 346.107C281.041 344.299 280.315 341.196 279.734 338.337C278.346 331.516 276.959 324.696 275.571 317.875C273.188 320.608 270.805 323.341 268.422 326.074C267.508 326.074 263.684 315.198 262.791 314.02C260.691 318.097 261.49 325.541 261.14 330.195C260.71 335.911 260.281 341.626 259.852 347.342V347.342Z" fill="#19282F"/>
<defs>
<filter id="filter0_d" x="15.9429" y="21.9429" width="480.114" height="487.114" filterUnits="userSpaceOnUse" color-interpolation-filters="sRGB">
<feFlood flood-opacity="0" result="BackgroundImageFix"/>
<feColorMatrix in="SourceAlpha" type="matrix" values="0 0 0 0 0 0 0 0 0 0 0 0 0 0 0 0 0 0 127 0"/>
<feOffset dy="13"/>
<feGaussianBlur stdDeviation="3"/>
<feColorMatrix type="matrix" values="0 0 0 0 0 0 0 0 0 0 0 0 0 0 0 0 0 0 0.25 0"/>
<feBlend mode="normal" in2="BackgroundImageFix" result="effect1_dropShadow"/>
<feBlend mode="normal" in="SourceGraphic" in2="effect1_dropShadow" result="shape"/>
</filter>
</defs>
</svg>
